<?xml version="1.0" encoding="UTF-8"?>
<svg id="Layer_1" xmlns="http://www.w3.org/2000/svg" version="1.1" viewBox="0 0 587.8 132">
  <!-- Generator: Adobe Illustrator 29.1.0, SVG Export Plug-In . SVG Version: 2.1.0 Build 142)  -->
  <defs>
    <style>
      .st0 {
        isolation: isolate;
      }

      .st1 {
        fill: #fff;
      }
    </style>
  </defs>
  <path class="st1" d="M520.9,4.8c33.7,0,61.2,27.4,61.2,61.2s-27.4,61.2-61.2,61.2H67c-33.7,0-61.2-27.4-61.2-61.2S33.3,4.8,67,4.8h453.9M520.9,2.9H67C32.1,2.9,3.9,31.1,3.9,66h0c0,34.9,28.2,63.1,63.1,63.1h453.9c34.9,0,63.1-28.2,63.1-63.1h0c0-34.9-28.2-63.1-63.1-63.1h0Z"/>
  <g>
    <g class="st0">
      <g class="st0">
        <g class="st0">
          <path class="st1" d="M189.4,82.6v-36.1h3.5v36.1h-3.5ZM210.6,82.6l-13.5-17h-4.5v-2.8h4.5l13.3-16.2h4.1l-14.7,18v-1s15.1,19.1,15.1,19.1h-4.2Z"/>
          <path class="st1" d="M226.4,46.5l16.3,32.4h.4v-15.9c-.1,0-.1-16.5-.1-16.5h3.4v36.1h-5.4l-16.4-32.6h-.4v16.8c.1,0,.1,15.8.1,15.8h-3.4v-36.1h5.5Z"/>
          <path class="st1" d="M267.5,83.2c-4.4,0-7.7-1.2-10-3.7-2.3-2.5-3.4-6-3.4-10.6v-8.8c0-4.6,1.1-8.1,3.4-10.5,2.3-2.5,5.6-3.7,10-3.7s7.7,1.2,10,3.7c2.3,2.5,3.4,6,3.4,10.5v8.8c0,4.6-1.1,8.1-3.4,10.6-2.3,2.5-5.6,3.7-10,3.7ZM267.5,80.3c3.3,0,5.7-1,7.4-2.9,1.7-1.9,2.5-4.7,2.5-8.3v-9.1c0-3.6-.8-6.3-2.5-8.3-1.7-1.9-4.1-2.9-7.4-2.9s-5.7,1-7.4,2.9c-1.7,1.9-2.5,4.7-2.5,8.3v9.1c0,3.6.8,6.3,2.5,8.3s4.1,2.9,7.4,2.9Z"/>
          <path class="st1" d="M293,82.6l-7.8-36.1h3.6l6.1,29.2.8,3.9h.6l.7-3.9,6.2-28.2h5.4l6.2,28.3.7,3.9h.6l.8-3.9,6.1-29.3h3.6l-7.8,36.1h-5.7l-4.9-22.1-2.1-10.1h-.5l-2.1,10.1-4.8,22.1h-5.8Z"/>
          <path class="st1" d="M344.7,82.6l1.5-36.1h5.7l9.5,27.7h.4l9.5-27.7h5.7l1.5,36.1h-3.4l-.6-16.2-.6-16.3h-.5l-9.7,28.4h-4l-9.7-28.4h-.5l-.6,16.4-.6,16.2h-3.5Z"/>
          <path class="st1" d="M398.8,83.2c-4.4,0-7.7-1.2-10-3.7-2.3-2.5-3.4-6-3.4-10.6v-8.8c0-4.6,1.1-8.1,3.4-10.5,2.3-2.5,5.6-3.7,10-3.7s7.7,1.2,10,3.7c2.3,2.5,3.4,6,3.4,10.5v8.8c0,4.6-1.1,8.1-3.4,10.6-2.3,2.5-5.6,3.7-10,3.7ZM398.8,80.3c3.3,0,5.7-1,7.4-2.9,1.7-1.9,2.5-4.7,2.5-8.3v-9.1c0-3.6-.8-6.3-2.5-8.3-1.7-1.9-4.1-2.9-7.4-2.9s-5.7,1-7.4,2.9c-1.7,1.9-2.5,4.7-2.5,8.3v9.1c0,3.6.8,6.3,2.5,8.3s4.1,2.9,7.4,2.9Z"/>
          <path class="st1" d="M420,82.6v-36.1h3.5v36.1h-3.5ZM441.3,82.6l-1.1-7.5c-.2-1.5-.5-2.8-1-3.9-.5-1.1-1.2-2-2.2-2.6-1-.6-2.4-1-4.3-1h-10.3v-2.8h11.1c2.7,0,4.5-.7,5.7-2,1.1-1.3,1.7-3.1,1.7-5.3v-.9c0-2.2-.6-4-1.7-5.2-1.1-1.2-3.1-1.9-5.7-1.9h-11.1v-2.9h11.5c3.7,0,6.4.8,8.1,2.5,1.7,1.7,2.5,4,2.5,6.9v1c0,2.4-.6,4.4-1.8,6-1.2,1.6-3.1,2.5-5.9,2.7v.3s-1.6-.6-1.6-.6c2.1.2,3.7.6,4.8,1.4,1.1.8,2,1.8,2.5,3.2.5,1.3.9,2.9,1.2,4.7l1.2,7.9h-3.6Z"/>
          <path class="st1" d="M452.1,82.6v-36.1h3.5v36.1h-3.5ZM453.1,49.5v-3h20.6v3h-20.6ZM453.2,82.6v-3h20.7v3h-20.7ZM454.1,65.6v-2.9h19.2v2.9h-19.2Z"/>
        </g>
      </g>
    </g>
    <path class="st1" d="M138.9,67.1c0,.5.4.8.5,1.2.8,2.6-.8,5.2-3.2,6.2,1.9,2.8.5,6.3-2.5,7.5,2.1,3.2,0,7.4-3.7,7.7-7.5-.4-15.5.5-23,0s-10.3-3.6-12.9-8.2c-3.9-7-2.2-15.5,3-21.2,5.3-5.9,11.7-11.2,17-17,2.4-2.2,6.4-1.2,7.5,1.8s-2.7,8.5-3.8,12.1h30.1c.4,0,1.5.5,1.8.8,3.2,1.9,3.2,6.5,0,8.4s-1.4.8-1.8.8h-9v-.2h0ZM149.7,61.6c-.2-1.1-1.3-2-2.5-2.1h-32c-.6-.5-.8-1-.6-1.6,1-2.9,4.7-7.7,4.9-10.5s-1.8-3.6-3.7-2.4l-17.3,17.3c-8.1,9.4-3.7,24.4,9.5,25,7.1.4,14.4-.3,21.6,0,3.5-.3,3.4-4.9,0-5.2s-4.5.2-6.7,0c-1.1-.4-1.1-2.2.2-2.3,2.7-.3,6,.2,8.9,0s3.5-4.9,0-5.2-6.2.2-9.2,0c-1.1-.4-1.1-2.2.2-2.3,3.5-.4,7.8.3,11.5,0s3.3-4.8.2-5.2h-11.8c-1.1-.4-1.1-1.7-.2-2.3h24.6c1.5-.2,2.7-1.6,2.4-3.2v-.2.2Z"/>
  </g>
</svg>