<?xml version="1.0" encoding="UTF-8"?>
<svg id="Layer_1" xmlns="http://www.w3.org/2000/svg" version="1.1" viewBox="0 0 757.6 132">
  <!-- Generator: Adobe Illustrator 29.1.0, SVG Export Plug-In . SVG Version: 2.1.0 Build 142)  -->
  <defs>
    <style>
      .st0 {
        isolation: isolate;
      }

      .st1 {
        fill: #fff;
      }

      .st2 {
        fill: none;
        stroke: #fff;
        stroke-miterlimit: 10;
        stroke-width: 2px;
      }
    </style>
  </defs>
  <path class="st2" d="M72.1,3.7h613.4c34.4,0,62.3,27.9,62.3,62.3h0c0,34.4-27.9,62.3-62.3,62.3H72.1c-34.4,0-62.3-27.9-62.3-62.3h0C9.8,31.6,37.7,3.7,72.1,3.7Z"/>
  <g>
    <path class="st1" d="M221.5,62.9c0,.5.4.8.5,1.2.8,2.6-.8,5.2-3.3,6.2,1.9,2.8.5,6.3-2.5,7.6,2.1,3.2,0,7.4-3.7,7.8-7.6-.4-15.6.5-23.1,0-7.6-.5-10.4-3.6-13-8.3-3.9-7-2.2-15.6,3-21.3,5.3-6,11.7-11.2,17.1-17.1,2.4-2.2,6.4-1.2,7.6,1.8s-2.7,8.5-3.8,12.2h30.3c.4,0,1.5.5,1.8.8,3.2,1.9,3.2,6.5,0,8.5s-1.4.8-1.8.8h-9v-.2h0ZM232.4,57.3c-.2-1.2-1.3-2-2.5-2.1h-32.2c-.6-.5-.8-1-.6-1.6,1-2.9,4.7-7.8,4.9-10.6s-1.8-3.6-3.7-2.4l-17.4,17.4c-8.2,9.4-3.7,24.5,9.5,25.2,7.1.4,14.5-.3,21.7,0,3.6-.3,3.5-4.9,0-5.2s-4.5.2-6.7,0c-1.2-.4-1.1-2.2.2-2.3,2.7-.3,6.1.2,8.9,0s3.6-4.9,0-5.2-6.2.2-9.2,0c-1.2-.4-1.1-2.2.2-2.3,3.6-.4,7.9.3,11.5,0s3.4-4.8.2-5.2h-11.9c-1.1-.4-1.2-1.7-.2-2.3h24.7c1.5-.2,2.7-1.6,2.4-3.2v-.2h.2Z"/>
    <g class="st0">
      <g class="st0">
        <g class="st0">
          <path class="st1" d="M264.3,81.3v-35.7h3.4v35.7h-3.4ZM265.3,48.6v-2.9h20.3v2.9h-20.3ZM265.4,81.3v-2.9h20.4v2.9h-20.4ZM266.3,64.6v-2.9h18.9v2.9h-18.9Z"/>
          <path class="st1" d="M298.6,45.7l16.1,32h.4v-15.7c-.1,0-.1-16.3-.1-16.3h3.4v35.7h-5.3l-16.2-32.2h-.4v16.6c.1,0,.1,15.6.1,15.6h-3.4v-35.7h5.4Z"/>
          <path class="st1" d="M355.6,82.3l-15-.4c-5-.1-8.8-1.4-11.1-3.8-2.4-2.4-3.6-5.8-3.6-10.3v-8.7c0-4.5,1.1-8,3.4-10.4s5.6-3.6,9.9-3.6,5.3.5,7.3,1.6c2,1.1,3.5,2.7,4.5,4.8,1,2.1,1.5,4.6,1.5,7.7v8.3c0,1.9-.2,3.6-.7,5-.4,1.4-1.1,2.6-1.8,3.5-.8.9-1.7,1.7-2.8,2.2-1.1.5-2.2.9-3.4,1.1h-.2c0,.1,12.1,0,12.1,0v3.1ZM340.1,79h.6c1.1-.2,2.2-.6,3.2-1.1,1-.5,1.9-1.2,2.7-2.1.8-.9,1.4-2,1.8-3.3.4-1.3.6-2.8.6-4.6v-9c0-3.5-.8-6.3-2.5-8.2-1.6-1.9-4.1-2.9-7.3-2.9s-5.6,1-7.3,2.9c-1.6,1.9-2.5,4.6-2.5,8.2v9c0,3.5.9,6.2,2.8,8.1,1.9,1.9,4.5,2.9,7.9,2.9Z"/>
          <path class="st1" d="M372.5,81.9c-4.3,0-7.4-1.1-9.5-3.4-2.1-2.3-3.1-5.5-3.1-9.8v-23.1h3.5v23.2c0,3.3.7,5.8,2.2,7.5,1.5,1.7,3.7,2.6,6.9,2.6s5.5-.9,6.9-2.6c1.4-1.7,2.2-4.2,2.2-7.5v-23.2h3.5v23.1c0,4.3-1,7.5-3.1,9.8-2.1,2.3-5.2,3.4-9.5,3.4Z"/>
          <path class="st1" d="M397.3,81.3h-3.5v-35.7h3.5v35.7Z"/>
          <path class="st1" d="M406.4,81.3v-35.7h3.4v35.7h-3.4ZM427.4,81.3l-1.1-7.4c-.2-1.5-.5-2.7-1-3.8-.5-1.1-1.2-2-2.2-2.6s-2.4-1-4.2-1h-10.2v-2.8h10.9c2.6,0,4.5-.7,5.6-2,1.1-1.3,1.6-3.1,1.6-5.3v-.9c0-2.2-.6-3.9-1.7-5.1-1.1-1.2-3-1.8-5.7-1.8h-10.9v-2.9h11.4c3.6,0,6.3.8,8,2.5,1.7,1.7,2.5,4,2.5,6.8v1c0,2.4-.6,4.3-1.7,5.9-1.2,1.6-3.1,2.5-5.8,2.7v.3s-1.5-.6-1.5-.6c2,.1,3.6.6,4.7,1.4,1.1.8,1.9,1.8,2.5,3.1.5,1.3.9,2.9,1.2,4.6l1.2,7.8h-3.6Z"/>
          <path class="st1" d="M438.1,81.3v-35.7h3.4v35.7h-3.4ZM439.1,48.6v-2.9h20.3v2.9h-20.3ZM439.2,81.3v-2.9h20.4v2.9h-20.4ZM440.1,64.6v-2.9h18.9v2.9h-18.9Z"/>
          <path class="st1" d="M484.4,45.7l16.1,32h.4v-15.7c-.1,0-.1-16.3-.1-16.3h3.4v35.7h-5.3l-16.2-32.2h-.4v16.6c.1,0,.1,15.6.1,15.6h-3.4v-35.7h5.4Z"/>
          <path class="st1" d="M525,81.9c-4.3,0-7.6-1.2-9.9-3.7s-3.4-5.9-3.4-10.4v-8.7c0-4.5,1.1-8,3.4-10.4,2.3-2.4,5.6-3.7,9.9-3.7s7.6,1.2,9.9,3.7c2.3,2.4,3.4,5.9,3.4,10.4v8.7c0,4.5-1.1,8-3.4,10.4-2.3,2.4-5.6,3.7-9.9,3.7ZM525,79c3.2,0,5.6-1,7.3-2.9,1.6-1.9,2.5-4.6,2.5-8.2v-9c0-3.5-.8-6.3-2.5-8.2-1.6-1.9-4.1-2.9-7.3-2.9s-5.6,1-7.3,2.9c-1.6,1.9-2.5,4.6-2.5,8.2v9c0,3.5.8,6.2,2.5,8.2,1.6,1.9,4.1,2.9,7.3,2.9Z"/>
          <path class="st1" d="M550.2,81.3l-7.7-35.7h3.6l6,28.9.8,3.8h.6l.7-3.8,6.2-27.9h5.3l6.2,27.9.7,3.8h.6l.8-3.8,6-28.9h3.5l-7.7,35.7h-5.7l-4.8-21.8-2.1-10h-.4l-2.1,10-4.7,21.8h-5.7Z"/>
        </g>
      </g>
    </g>
  </g>
</svg>