<?xml version="1.0" encoding="UTF-8"?>
<svg id="Layer_1" xmlns="http://www.w3.org/2000/svg" version="1.1" viewBox="0 0 588.8 132">
  <!-- Generator: Adobe Illustrator 29.1.0, SVG Export Plug-In . SVG Version: 2.1.0 Build 142)  -->
  <defs>
    <style>
      .st0 {
        isolation: isolate;
      }

      .st1 {
        fill: #fff;
      }
    </style>
  </defs>
  <path class="st1" d="M522.5,4.5c33.9,0,61.5,27.6,61.5,61.5s-27.6,61.5-61.5,61.5H66.3c-33.9,0-61.5-27.6-61.5-61.5S32.4,4.5,66.3,4.5h456.2M522.5,2.6H66.3C31.2,2.6,2.9,30.9,2.9,66h0c0,35.1,28.3,63.4,63.4,63.4h456.2c35.1,0,63.4-28.3,63.4-63.4h0c0-35.1-28.3-63.4-63.4-63.4h0Z"/>
  <g class="st0">
    <g class="st0">
      <g class="st0">
        <path class="st1" d="M170.5,82.7v-36.3h3.5v36.3h-3.5ZM171.5,49.4v-3h20.7v3h-20.7ZM171.6,82.7v-3h20.8v3h-20.8ZM172.5,65.6v-3h19.3v3h-19.3Z"/>
        <path class="st1" d="M205.4,46.4l16.4,32.6h.4v-16c-.1,0-.1-16.6-.1-16.6h3.4v36.3h-5.4l-16.4-32.8h-.4v16.9c.1,0,.1,15.8.1,15.8h-3.5v-36.3h5.5Z"/>
        <path class="st1" d="M263.5,83.7l-15.2-.4c-5.1-.1-8.9-1.4-11.3-3.8-2.4-2.4-3.6-5.9-3.6-10.5v-8.9c0-4.6,1.2-8.1,3.5-10.6,2.3-2.5,5.7-3.7,10.1-3.7s5.4.6,7.4,1.7c2,1.1,3.5,2.7,4.6,4.9,1,2.1,1.5,4.7,1.5,7.8v8.4c0,1.9-.2,3.6-.7,5.1-.4,1.4-1.1,2.6-1.9,3.6s-1.7,1.7-2.8,2.3c-1.1.6-2.2.9-3.5,1.1h-.2c0,.1,12.3,0,12.3,0v3.2ZM247.7,80.3h.6c1.2-.2,2.2-.6,3.3-1.1,1-.5,1.9-1.2,2.7-2.1s1.4-2,1.8-3.3c.4-1.3.7-2.9.7-4.7v-9.1c0-3.6-.8-6.4-2.5-8.3-1.7-1.9-4.2-2.9-7.4-2.9s-5.8,1-7.4,2.9c-1.7,1.9-2.5,4.7-2.5,8.3v9.1c0,3.6.9,6.3,2.8,8.2,1.9,1.9,4.6,2.9,8,3Z"/>
        <path class="st1" d="M280.6,83.3c-4.3,0-7.5-1.2-9.6-3.5-2.1-2.3-3.1-5.6-3.1-10v-23.5h3.6v23.6c0,3.3.7,5.9,2.2,7.6,1.5,1.8,3.8,2.7,7,2.7s5.6-.9,7-2.7c1.5-1.8,2.2-4.3,2.2-7.6v-23.6h3.5v23.5c0,4.3-1,7.7-3.1,10s-5.3,3.5-9.6,3.5Z"/>
        <path class="st1" d="M305.9,82.7h-3.6v-36.3h3.6v36.3Z"/>
        <path class="st1" d="M315.1,82.7v-36.3h3.5v36.3h-3.5ZM336.5,82.7l-1.1-7.6c-.2-1.5-.5-2.8-1-3.9-.5-1.1-1.2-2-2.2-2.7-1-.7-2.4-1-4.3-1h-10.4v-2.8h11.1c2.7,0,4.6-.7,5.7-2,1.1-1.3,1.7-3.1,1.7-5.4v-.9c0-2.2-.6-4-1.7-5.2s-3.1-1.9-5.8-1.9h-11.1v-3h11.6c3.7,0,6.4.9,8.1,2.6s2.5,4,2.5,7v1c0,2.4-.6,4.4-1.8,6-1.2,1.6-3.2,2.5-5.9,2.7v.3s-1.6-.6-1.6-.6c2.1.2,3.7.6,4.8,1.4s2,1.8,2.5,3.2c.5,1.3,1,2.9,1.2,4.7l1.2,8h-3.7Z"/>
        <path class="st1" d="M347.4,82.7v-36.3h3.5v36.3h-3.5ZM348.5,49.4v-3h20.7v3h-20.7ZM348.5,82.7v-3h20.8v3h-20.8ZM349.4,65.6v-3h19.3v3h-19.3Z"/>
        <path class="st1" d="M394.5,46.4l16.4,32.6h.4v-16c-.1,0-.1-16.6-.1-16.6h3.4v36.3h-5.4l-16.4-32.8h-.4v16.9c.1,0,.1,15.8.1,15.8h-3.5v-36.3h5.5Z"/>
        <path class="st1" d="M435.8,83.3c-4.4,0-7.8-1.2-10.1-3.7-2.3-2.5-3.5-6-3.5-10.6v-8.9c0-4.6,1.2-8.1,3.5-10.6,2.3-2.5,5.7-3.7,10.1-3.7s7.7,1.2,10.1,3.7c2.3,2.5,3.5,6,3.5,10.6v8.9c0,4.6-1.2,8.1-3.5,10.6-2.3,2.5-5.7,3.7-10.1,3.7ZM435.8,80.3c3.3,0,5.8-1,7.4-2.9,1.7-2,2.5-4.7,2.5-8.3v-9.1c0-3.6-.8-6.4-2.5-8.3-1.7-1.9-4.2-2.9-7.4-2.9s-5.8,1-7.4,2.9c-1.7,1.9-2.5,4.7-2.5,8.3v9.1c0,3.6.8,6.3,2.5,8.3,1.7,2,4.2,2.9,7.4,2.9Z"/>
        <path class="st1" d="M461.5,82.7l-7.8-36.3h3.6l6.1,29.4.8,3.9h.6l.7-3.9,6.3-28.4h5.4l6.3,28.4.7,3.9h.6l.8-3.9,6.1-29.4h3.6l-7.8,36.3h-5.8l-4.9-22.2-2.1-10.2h-.5l-2.1,10.2-4.8,22.2h-5.8Z"/>
      </g>
    </g>
  </g>
  <path class="st1" d="M138.6,67.2c0,.5.4.8.5,1.2.8,2.6-.8,5.2-3.3,6.2,1.9,2.8.5,6.3-2.5,7.6,2.1,3.2,0,7.4-3.7,7.8-7.6-.4-15.6.5-23.1,0-7.6-.5-10.4-3.6-13-8.3-3.9-7-2.2-15.6,3-21.3,5.3-6,11.7-11.2,17.1-17.1,2.4-2.2,6.4-1.2,7.6,1.8s-2.7,8.5-3.8,12.2h30.3c.4,0,1.5.5,1.8.8,3.2,1.9,3.2,6.5,0,8.5s-1.4.8-1.8.8h-9v-.2h0ZM149.5,61.6c-.2-1.2-1.3-2-2.5-2.1h-32.2c-.6-.5-.8-1-.6-1.6,1-2.9,4.7-7.8,4.9-10.6s-1.8-3.6-3.7-2.4l-17.4,17.4c-8.2,9.4-3.7,24.5,9.5,25.2,7.1.4,14.5-.3,21.7,0,3.6-.3,3.5-4.9,0-5.2s-4.5.2-6.7,0c-1.2-.4-1.1-2.2.2-2.3,2.7-.3,6.1.2,8.9,0s3.6-4.9,0-5.2-6.2.2-9.2,0c-1.2-.4-1.1-2.2.2-2.3,3.6-.4,7.9.3,11.5,0s3.4-4.8.2-5.2h-11.9c-1.1-.4-1.2-1.7-.2-2.3h24.7c1.5-.2,2.7-1.6,2.4-3.2v-.2h.2Z"/>
</svg>