<?xml version="1.0" encoding="UTF-8"?>
<svg id="Layer_1" xmlns="http://www.w3.org/2000/svg" version="1.1" viewBox="0 0 757.6 132">
  <!-- Generator: Adobe Illustrator 29.1.0, SVG Export Plug-In . SVG Version: 2.1.0 Build 142)  -->
  <defs>
    <style>
      .st0 {
        isolation: isolate;
      }

      .st1 {
        fill: #ddd;
      }

      .st2 {
        fill: #fff;
      }

      .st3 {
        fill: #08241a;
      }
    </style>
  </defs>
  <path class="st2" d="M72.1,3.7h613.4c34.4,0,62.3,27.9,62.3,62.3h0c0,34.4-27.9,62.3-62.3,62.3H72.1c-34.4,0-62.3-27.9-62.3-62.3h0c0-34.4,27.9-62.3,62.3-62.3Z"/>
  <g class="st0">
    <g class="st0">
      <path class="st3" d="M183.9,82.4v-35.7h3.4v35.7h-3.4ZM186.2,82.4v-3h8.9c3.4,0,6-.9,7.7-2.8,1.7-1.9,2.6-4.5,2.6-8v-8.2c0-3.5-.9-6.2-2.6-8-1.7-1.9-4.3-2.8-7.7-2.8h-8.9v-2.9h9c4.5,0,7.9,1.2,10.2,3.5,2.3,2.4,3.5,5.7,3.5,10.2v8.2c0,4.4-1.2,7.8-3.5,10.2-2.3,2.4-5.7,3.6-10.2,3.6h-9Z"/>
      <path class="st3" d="M228.4,83c-4.3,0-7.6-1.2-9.9-3.7s-3.4-5.9-3.4-10.4v-8.7c0-4.5,1.1-8,3.4-10.4,2.3-2.4,5.6-3.7,9.9-3.7s7.6,1.2,9.9,3.7c2.3,2.4,3.4,5.9,3.4,10.4v8.7c0,4.5-1.1,8-3.4,10.4-2.3,2.4-5.6,3.7-9.9,3.7ZM228.4,80.1c3.2,0,5.6-1,7.3-2.9,1.6-1.9,2.5-4.6,2.5-8.2v-9c0-3.5-.8-6.3-2.5-8.2-1.6-1.9-4.1-2.9-7.3-2.9s-5.6,1-7.3,2.9c-1.6,1.9-2.5,4.6-2.5,8.2v9c0,3.5.8,6.2,2.5,8.2,1.6,1.9,4.1,2.9,7.3,2.9Z"/>
      <path class="st3" d="M253.6,82.4l-7.7-35.7h3.6l6,28.9.8,3.8h.6l.7-3.8,6.2-27.9h5.3l6.2,27.9.7,3.8h.6l.8-3.8,6-28.9h3.5l-7.7,35.7h-5.7l-4.8-21.8-2.1-10h-.4l-2.1,10-4.7,21.8h-5.7Z"/>
      <path class="st3" d="M298.8,46.7l16.1,32h.4v-15.7c-.1,0-.1-16.3-.1-16.3h3.4v35.7h-5.3l-16.2-32.2h-.4v16.6c.1,0,.1,15.6.1,15.6h-3.4v-35.7h5.4Z"/>
      <path class="st3" d="M331,82.4h-3.5v-35.7h3.5v35.7ZM329.3,79.4h18.9v3h-18.9v-3Z"/>
      <path class="st3" d="M364.9,83c-4.3,0-7.6-1.2-9.9-3.7s-3.4-5.9-3.4-10.4v-8.7c0-4.5,1.1-8,3.4-10.4,2.3-2.4,5.6-3.7,9.9-3.7s7.6,1.2,9.9,3.7c2.3,2.4,3.4,5.9,3.4,10.4v8.7c0,4.5-1.1,8-3.4,10.4-2.3,2.4-5.6,3.7-9.9,3.7ZM364.9,80.1c3.2,0,5.6-1,7.3-2.9,1.6-1.9,2.5-4.6,2.5-8.2v-9c0-3.5-.8-6.3-2.5-8.2-1.6-1.9-4.1-2.9-7.3-2.9s-5.6,1-7.3,2.9c-1.6,1.9-2.5,4.6-2.5,8.2v9c0,3.5.8,6.2,2.5,8.2,1.6,1.9,4.1,2.9,7.3,2.9Z"/>
      <path class="st3" d="M381.9,82.4l11.4-35.7h5.7l11.4,35.7h-3.5l-10.4-33.3h-.7l-10.4,33.3h-3.5ZM388,71.2v-2.9h16.3v2.9h-16.3Z"/>
      <path class="st3" d="M416.6,82.4v-35.7h3.4v35.7h-3.4ZM418.9,82.4v-3h8.9c3.4,0,6-.9,7.7-2.8,1.7-1.9,2.6-4.5,2.6-8v-8.2c0-3.5-.9-6.2-2.6-8-1.7-1.9-4.3-2.8-7.7-2.8h-8.9v-2.9h9c4.5,0,7.9,1.2,10.2,3.5,2.3,2.4,3.5,5.7,3.5,10.2v8.2c0,4.4-1.2,7.8-3.5,10.2-2.3,2.4-5.7,3.6-10.2,3.6h-9Z"/>
      <path class="st3" d="M461.1,82.4v-35.7h3.4v35.7h-3.4ZM463.4,82.4v-2.9h11.8c2.6,0,4.5-.6,5.6-1.7,1.1-1.2,1.6-2.7,1.6-4.7v-1.1c0-2-.6-3.6-1.7-4.8-1.1-1.1-3.1-1.7-5.8-1.7h-11.4v-2.8h11.4c2.5,0,4.2-.6,5.3-1.7,1.1-1.1,1.6-2.6,1.6-4.6v-.6c0-1.9-.5-3.4-1.5-4.5-1-1.1-2.8-1.7-5.4-1.7h-11.5v-2.9h11.8c3.6,0,6.2.8,7.8,2.3,1.6,1.5,2.3,3.6,2.3,6.3v.6c0,2.2-.6,4-1.7,5.3-1.1,1.3-2.8,2.1-5.2,2.3h0c2.7.3,4.7,1.1,5.9,2.5,1.2,1.4,1.8,3.4,1.8,5.9v1.3c0,2.8-.8,5.1-2.4,6.7-1.6,1.7-4.3,2.5-8,2.5h-12.1Z"/>
      <path class="st3" d="M493.1,82.4v-35.7h3.4v35.7h-3.4ZM514.1,82.4l-1.1-7.4c-.2-1.5-.5-2.7-1-3.8-.5-1.1-1.2-2-2.2-2.6s-2.4-1-4.2-1h-10.2v-2.8h10.9c2.6,0,4.5-.7,5.6-2,1.1-1.3,1.6-3.1,1.6-5.3v-.9c0-2.2-.6-3.9-1.7-5.1-1.1-1.2-3-1.8-5.7-1.8h-10.9v-2.9h11.4c3.6,0,6.3.8,8,2.5,1.7,1.7,2.5,4,2.5,6.8v1c0,2.4-.6,4.3-1.7,5.9-1.2,1.6-3.1,2.5-5.8,2.7v.3s-1.5-.6-1.5-.6c2,.1,3.6.6,4.7,1.4,1.1.8,1.9,1.8,2.5,3.1.5,1.3.9,2.9,1.2,4.6l1.2,7.8h-3.6Z"/>
      <path class="st3" d="M536.7,83c-4.3,0-7.6-1.2-9.9-3.7s-3.4-5.9-3.4-10.4v-8.7c0-4.5,1.1-8,3.4-10.4,2.3-2.4,5.6-3.7,9.9-3.7s7.6,1.2,9.9,3.7c2.3,2.4,3.4,5.9,3.4,10.4v8.7c0,4.5-1.1,8-3.4,10.4-2.3,2.4-5.6,3.7-9.9,3.7ZM536.7,80.1c3.2,0,5.6-1,7.3-2.9,1.6-1.9,2.5-4.6,2.5-8.2v-9c0-3.5-.8-6.3-2.5-8.2-1.6-1.9-4.1-2.9-7.3-2.9s-5.6,1-7.3,2.9c-1.6,1.9-2.5,4.6-2.5,8.2v9c0,3.5.8,6.2,2.5,8.2,1.6,1.9,4.1,2.9,7.3,2.9Z"/>
      <path class="st3" d="M569,83c-4.3,0-7.5-1.2-9.6-3.6-2.1-2.4-3.2-5.9-3.2-10.3v-9.1c0-4.4,1.1-7.8,3.2-10.3,2.1-2.4,5.3-3.6,9.5-3.6s2.7.1,3.9.4c1.2.3,2.2.7,3.1,1.1.9.4,1.7.9,2.3,1.4l.3,3.3c-1.1-.8-2.4-1.6-3.9-2.2s-3.3-.9-5.3-.9c-3.1,0-5.5.9-7.1,2.8-1.6,1.9-2.4,4.6-2.4,8v8.9c0,3.5.8,6.1,2.4,8,1.6,1.9,4.1,2.8,7.3,2.8s3.8-.3,5.3-.9c1.5-.6,2.9-1.4,4-2.2l-.3,3.3c-.6.5-1.4.9-2.3,1.4-.9.4-2,.8-3.2,1.1-1.2.3-2.5.4-4,.4Z"/>
      <path class="st3" d="M589.3,82.4h-3.5v-35.7h3.5v35.7ZM587.8,62.5h21v2.9h-21v-2.9ZM610.9,82.4h-3.5v-35.7h3.5v35.7Z"/>
      <path class="st3" d="M632.2,83c-4.3,0-7.4-1.1-9.5-3.4-2.1-2.3-3.1-5.5-3.1-9.8v-23.1h3.5v23.2c0,3.3.7,5.8,2.2,7.5,1.5,1.7,3.7,2.6,6.9,2.6s5.5-.9,6.9-2.6c1.4-1.7,2.2-4.2,2.2-7.5v-23.2h3.5v23.1c0,4.3-1,7.5-3.1,9.8-2.1,2.3-5.2,3.4-9.5,3.4Z"/>
      <path class="st3" d="M653.5,82.4v-35.7h3.4v35.7h-3.4ZM674.5,82.4l-1.1-7.4c-.2-1.5-.5-2.7-1-3.8-.5-1.1-1.2-2-2.2-2.6s-2.4-1-4.2-1h-10.2v-2.8h10.9c2.6,0,4.5-.7,5.6-2,1.1-1.3,1.6-3.1,1.6-5.3v-.9c0-2.2-.6-3.9-1.7-5.1-1.1-1.2-3-1.8-5.7-1.8h-10.9v-2.9h11.4c3.6,0,6.3.8,8,2.5,1.7,1.7,2.5,4,2.5,6.8v1c0,2.4-.6,4.3-1.7,5.9-1.2,1.6-3.1,2.5-5.8,2.7v.3s-1.5-.6-1.5-.6c2,.1,3.6.6,4.7,1.4,1.1.8,1.9,1.8,2.5,3.1.5,1.3.9,2.9,1.2,4.6l1.2,7.8h-3.6Z"/>
      <path class="st3" d="M685.2,82.4v-35.7h3.4v35.7h-3.4ZM686.2,49.7v-2.9h20.3v2.9h-20.3ZM686.3,82.4v-2.9h20.4v2.9h-20.4ZM687.2,65.6v-2.9h18.9v2.9h-18.9Z"/>
    </g>
  </g>
  <g>
    <circle class="st1" cx="89.3" cy="66" r="42.7"/>
    <g>
      <path class="st3" d="M69.2,73c1.1-.2,2.1.6,2.2,1.7.2,2.3-.4,5.4,0,7.6s0,.3.2.5c.3.6.9.9,1.7.9h32.6c.7-.2,1.2-.8,1.3-1.5.3-2.3-.2-5.2,0-7.5.2-2.2,3.1-2.4,3.6-.2-.3,4.7,1.7,11.6-4.6,12.7h-33.3c-6.6-.8-4.6-8-4.9-12.7,0-.7.8-1.4,1.4-1.5h-.2Z"/>
      <path class="st3" d="M91.1,71.3s.8-.5.8-.6c1.6-1.2,3.7-3.3,5.3-4.2s4.1,1,2.1,2.9-5.9,4.9-8.4,6.7-1.5,1.1-2.7.4l-8.9-7.1c-1.4-1.3-.2-3.6,1.7-3,1.1.8,2.3,1.6,3.3,2.5s3.2.2,3.2-1.5v-21.2c0-.8,1.1-1.4,1.9-1.4s1.7.8,1.7,1.4v25.2h0Z"/>
    </g>
  </g>
</svg>